<?xml version="1.0" standalone="no"?><!DOCTYPE svg PUBLIC "-//W3C//DTD SVG 1.1//EN" "http://www.w3.org/Graphics/SVG/1.1/DTD/svg11.dtd">
<svg class="icon" width="200px" height="200.00px" viewBox="0 0 1024 1024" version="1.1" xmlns="http://www.w3.org/2000/svg">
<path fill="#CDC1C5" d="M826.820379 900.364673a1.688226 1.688226 0 0 0 0-3.376452 1.688226 1.688226 0 0 0 0 3.376452zM512 1023.999088A512.09521 512.09521 0 0 1 312.710552 40.247307a512.122222 512.122222 0 0 1 398.590151 943.504474 508.808797 508.808797 0 0 1-199.300703 40.247307z m0-984.595894a472.703271 472.703271 0 0 0-183.949101 908.062984A472.731408 472.731408 0 0 0 695.960356 76.521656 469.6307 469.6307 0 0 0 512 39.391939zM357.651127 753.579053V270.420036l418.432434 241.573881z m39.391939-414.932179v346.70534l300.256616-173.324533z" />
</svg>