<?xml version="1.0" standalone="no"?><!DOCTYPE svg PUBLIC "-//W3C//DTD SVG 1.1//EN" "http://www.w3.org/Graphics/SVG/1.1/DTD/svg11.dtd"><svg class="icon" width="200px" height="200.00px" viewBox="0 0 1024 1024" version="1.1" xmlns="http://www.w3.org/2000/svg"><path fill="#ffffff" d="M422.4 153.6h-102.4c-28.16 0-51.2 23.04-51.2 51.2v614.4c0 28.16 23.04 51.2 51.2 51.2h102.4c28.16 0 51.2-23.04 51.2-51.2V204.8c0-28.16-23.04-51.2-51.2-51.2z m0 640c0 15.36-10.24 25.6-25.6 25.6h-51.2c-15.36 0-25.6-10.24-25.6-25.6V230.4c0-15.36 10.24-25.6 25.6-25.6h51.2c15.36 0 25.6 10.24 25.6 25.6v563.2z m307.2-640h-102.4c-28.16 0-51.2 23.04-51.2 51.2v614.4c0 28.16 23.04 51.2 51.2 51.2h102.4c28.16 0 51.2-23.04 51.2-51.2V204.8c0-28.16-23.04-51.2-51.2-51.2z m0 640c0 15.36-10.24 25.6-25.6 25.6h-51.2c-15.36 0-25.6-10.24-25.6-25.6V230.4c0-15.36 10.24-25.6 25.6-25.6h51.2c15.36 0 25.6 10.24 25.6 25.6v563.2z" /></svg>