<?xml version="1.0" standalone="no"?><!DOCTYPE svg PUBLIC "-//W3C//DTD SVG 1.1//EN" "http://www.w3.org/Graphics/SVG/1.1/DTD/svg11.dtd"><svg class="icon" width="200px" height="200.00px" viewBox="0 0 1024 1024" version="1.1" xmlns="http://www.w3.org/2000/svg"><path fill="#ffffff" d="M717 821c-52.07 0-82.21-33.3-107-69.32l-11.67-16.36a39.9 39.9 0 0 0-47.76-13.81 20 20 0 0 1-15.14-37 79.73 79.73 0 0 1 95.46 27.6l11.77 16.49c0.06 0.1 0.13 0.19 0.19 0.28C669 766.87 689.09 781 717 781a78.09 78.09 0 0 0 78-78V320a78.09 78.09 0 0 0-78-78c-31.9 0-60.25 22-75.82 59-28.52 67.62-80.8 195.45-122.81 298.16-26.62 65.09-47.65 116.5-54 131.37C439.63 788.86 399 821 350 821a118.13 118.13 0 0 1-118-118V320a118 118 0 0 1 236 0v151a20 20 0 1 1-40 0V320a78 78 0 0 0-156 0v383a78.09 78.09 0 0 0 78 78c22.59 0 54.38-11.47 77.59-66.13 6.21-14.63 27.19-65.93 53.76-130.88 42-102.8 94.37-230.74 123-298.56 9.94-23.57 24.62-43.66 42.45-58.1C667.23 210.76 691.51 202 717 202a118.13 118.13 0 0 1 118 118v383a118.13 118.13 0 0 1-118 118z" /></svg>