<?xml version="1.0" standalone="no"?><!DOCTYPE svg PUBLIC "-//W3C//DTD SVG 1.1//EN" "http://www.w3.org/Graphics/SVG/1.1/DTD/svg11.dtd"><svg class="icon" width="200px" height="200.00px" viewBox="0 0 1024 1024" version="1.1" xmlns="http://www.w3.org/2000/svg"><path fill="#ffffff" d="M489.498 189.173H847c61.856 0 112 50.144 112 112V781c0 61.856-50.144 112-112 112H224c-61.856 0-112-50.144-112-112V301.914c0-61.856 50.144-112 112-112h29.75c22.091 0 40 17.908 40 40 0 22.091-17.909 40-40 40H224c-17.673 0-32 14.327-32 32V781c0 17.673 14.327 32 32 32h623c17.673 0 32-14.327 32-32V301.173c0-17.673-14.327-32-32-32H387.562c-36.364 0-53.863-44.595-27.203-69.326L480.203 88.675c16.196-15.024 41.504-14.074 56.528 2.122 15.024 16.196 14.075 41.504-2.121 56.528l-45.112 41.848zM472 406c0-22.091 17.909-40 40-40s40 17.909 40 40v270c0 22.091-17.909 40-40 40s-40-17.909-40-40V406z" /></svg>