<?xml version="1.0" standalone="no"?><!DOCTYPE svg PUBLIC "-//W3C//DTD SVG 1.1//EN" "http://www.w3.org/Graphics/SVG/1.1/DTD/svg11.dtd"><svg t="1558499469978" class="icon" style="" viewBox="0 0 1024 1024" version="1.1" xmlns="http://www.w3.org/2000/svg" p-id="15422" xmlns:xlink="http://www.w3.org/1999/xlink" width="200" height="200"><defs><style type="text/css"></style></defs><path d="M161.374876 726.133985l138.259924 0c6.461155 0 12.55699 1.304715 17.141402 5.888104l212.31557 211.712843c10.790764 10.790764 24.956392 16.425088 39.885406 16.425088 31.482015 0 57.105602-25.846668 57.105602-57.20077L626.08278 120.738875c0-31.369452-25.623587-56.898895-57.105602-56.898895-14.929014 0-29.094642 5.936199-39.885406 16.726963L316.792575 294.076712c-4.583388 4.583388-10.680247 8.308223-17.157775 8.308223L161.374876 302.384935c-31.337729 0-56.818053 23.062252-56.818053 54.399981l0 310.110897C104.556822 698.217169 130.037147 726.133985 161.374876 726.133985zM137.151172 356.784916c0-13.353123 10.870582-21.788236 24.223704-21.788236l138.259924 0c15.167444 0 29.443589-7.115048 40.187281-17.857716L552.138674 104.217596c5.936199-5.936199 12.429077-7.480368 16.838503-7.480368 12.047384 0 24.51023 8.769734 24.51023 24.000624L593.487408 902.958226c0 15.21554-12.462846 24.287149-24.51023 24.287149-4.409426 0-10.902304-1.24127-16.838503-7.163143L339.806731 708.945511c-10.743692-10.728342-25.019837-15.407921-40.171931-15.407921L161.374876 693.53759c-13.353123 0-24.223704-13.305027-24.223704-26.641777L137.151172 356.784916zM886.846782 511.836271c0-80.884169-65.795519-146.679687-146.679687-146.679687-9.009188 0-16.298198-7.290033-16.298198-16.297175 0-9.008164 7.28901-16.298198 16.298198-16.298198 98.853425 0 179.274036 80.422657 179.274036 179.27506 0 98.844216-80.421634 179.283246-179.274036 179.283246-9.009188 0-16.298198-7.28901-16.298198-16.299221 0-9.008164 7.28901-16.297175 16.298198-16.297175C821.052287 658.524145 886.846782 592.728626 886.846782 511.836271z" p-id="15423" fill="#ffffff"></path></svg>