<?xml version="1.0" standalone="no"?><!DOCTYPE svg PUBLIC "-//W3C//DTD SVG 1.1//EN" "http://www.w3.org/Graphics/SVG/1.1/DTD/svg11.dtd"><svg class="icon" width="200px" height="200.00px" viewBox="0 0 1024 1024" version="1.1" xmlns="http://www.w3.org/2000/svg"><path fill="#333333" d="M896 1024a64 64 0 0 1-64-64V448a64 64 0 0 1 128 0v512a64 64 0 0 1-64 64z m-256 0a64 64 0 0 1-64-64V64a64 64 0 0 1 128 0v896a64 64 0 0 1-64 64z m-256 0a64 64 0 0 1-64-64v-256a64 64 0 0 1 128 0v256a64 64 0 0 1-64 64z m-256 0a64 64 0 0 1-64-64V320a64 64 0 0 1 128 0v640a64 64 0 0 1-64 64z"  /></svg>